<?xml version="1.0" encoding="utf-8"?>
<!-- Generator: Adobe Illustrator 28.2.0, SVG Export Plug-In . SVG Version: 6.00 Build 0)  -->
<svg version="1.1" id="Layer_1" xmlns="http://www.w3.org/2000/svg" xmlns:xlink="http://www.w3.org/1999/xlink" x="0px" y="0px"
	 viewBox="0 0 482.5 181.8" style="enable-background:new 0 0 482.5 181.8;" xml:space="preserve">
<style type="text/css">
	.st0{fill:#FFFFFF;}
</style>
<g>
	<g>
		<path class="st0" d="M182,63.7V29.8h20.9v6.1h-14.7v7.2h11.3v6h-11.3v14.7L182,63.7L182,63.7z"/>
		<path class="st0" d="M222.1,64.3c-3.2,0-6.1-0.7-8.6-2.2c-2.6-1.4-4.5-3.5-6-6.2c-1.4-2.7-2.2-5.8-2.2-9.3c0-3.6,0.7-6.7,2.2-9.3
			c1.4-2.7,3.4-4.7,6-6.2c2.6-1.4,5.3-2.2,8.6-2.2s6.1,0.7,8.6,2.2s4.5,3.5,6,6.2c1.4,2.7,2.2,5.8,2.2,9.3s-0.7,6.7-2.2,9.3
			c-1.4,2.7-3.4,4.7-6,6.2C228.1,63.6,225.2,64.3,222.1,64.3z M222.1,58.4c2.3,0,4.1-0.5,5.7-1.5c1.5-1,2.7-2.4,3.4-4.1
			c0.7-1.7,1.1-3.7,1.1-6s-0.4-4.2-1.1-6s-1.9-3.1-3.4-4.1s-3.4-1.5-5.7-1.5s-4.1,0.5-5.7,1.5c-1.5,1-2.7,2.4-3.4,4.1
			c-0.7,1.7-1.1,3.7-1.1,6s0.4,4.2,1.1,6c0.7,1.7,1.9,3.1,3.4,4.1C217.8,57.9,219.8,58.4,222.1,58.4z"/>
		<path class="st0" d="M257.8,64.3c-3.2,0-5.9-0.6-7.9-1.9c-2.1-1.2-3.6-3-4.6-5.3s-1.5-4.9-1.5-8V29.8h6.2v17.8
			c0,1.6,0.1,3.1,0.3,4.4c0.2,1.3,0.6,2.5,1.1,3.4s1.3,1.7,2.4,2.3c1,0.5,2.4,0.8,4,0.8s3-0.3,4-0.8s1.9-1.2,2.4-2.3
			c0.5-0.9,0.9-2.2,1.1-3.4c0.2-1.3,0.3-2.8,0.3-4.4V29.8h6.2v19.3c0,3.1-0.5,5.8-1.5,8c-1,2.3-2.6,4-4.6,5.3
			C263.6,63.7,261,64.3,257.8,64.3L257.8,64.3z"/>
		<path class="st0" d="M278.9,63.7V29.8h6.1l14.5,21.9V29.8h6.2v33.9h-5l-15.5-23.2v23.2H278.9L278.9,63.7z"/>
		<path class="st0" d="M313.2,63.7V29.8h12.6c3.2,0,6.1,0.7,8.6,2.1c2.6,1.3,4.5,3.3,6,5.9c1.4,2.6,2.2,5.6,2.2,9.2
			c0,3.6-0.7,6.6-2.2,9.2c-1.4,2.6-3.4,4.4-6,5.9c-2.5,1.3-5.3,2.1-8.6,2.1h-12.6V63.7z M319.3,58.2h6.5c2.2,0,4-0.5,5.5-1.3
			c1.4-0.9,2.6-2.3,3.3-3.9c0.7-1.7,1.1-3.7,1.1-6.1c0-2.4-0.4-4.4-1.1-6.1c-0.7-1.7-1.9-3-3.3-3.9s-3.3-1.3-5.5-1.3h-6.5V58.2z"/>
		<path class="st0" d="M358.6,35.9h1.5l-9.8,27.9h-6l12-33.9h5.9l12,33.9h-6L358.6,35.9L358.6,35.9z M366.5,55.7h-14.2v-5.5h14.2
			V55.7z"/>
		<path class="st0" d="M384.8,63.7V35.9h-9.6v-6h25.4v6H391v27.9h-6.2V63.7z"/>
		<path class="st0" d="M405.1,63.7V29.8h6.2v33.9H405.1z"/>
		<path class="st0" d="M433.5,64.3c-3.2,0-6.1-0.7-8.6-2.2c-2.6-1.4-4.5-3.5-6-6.2c-1.4-2.7-2.2-5.8-2.2-9.3c0-3.6,0.7-6.7,2.2-9.3
			c1.4-2.7,3.4-4.7,6-6.2c2.6-1.4,5.3-2.2,8.6-2.2c3.2,0,6.1,0.7,8.6,2.2c2.6,1.4,4.5,3.5,6,6.2c1.4,2.7,2.2,5.8,2.2,9.3
			s-0.7,6.7-2.2,9.3c-1.4,2.7-3.4,4.7-6,6.2C439.6,63.6,436.7,64.3,433.5,64.3z M433.5,58.4c2.3,0,4.1-0.5,5.7-1.5
			c1.5-1,2.7-2.4,3.4-4.1c0.7-1.7,1.1-3.7,1.1-6s-0.4-4.2-1.1-6s-1.9-3.1-3.4-4.1s-3.4-1.5-5.7-1.5s-4.1,0.5-5.7,1.5
			s-2.7,2.4-3.4,4.1c-0.7,1.7-1.1,3.7-1.1,6s0.4,4.2,1.1,6s1.9,3.1,3.4,4.1S431.2,58.4,433.5,58.4z"/>
		<path class="st0" d="M455.6,63.7V29.8h6.1l14.5,21.9V29.8h6.2v33.9h-5l-15.5-23.2v23.2H455.6L455.6,63.7z"/>
		<g>
			<path class="st0" d="M182,138.9l12.4-5.7c2.2,6.1,7.2,11.6,15.2,11.6c6.2,0,11.6-3.2,11.6-10.1c0-5.8-3.4-8.3-11.5-11.6l-5-1.9
				c-10.8-4.3-19.7-10.3-19.7-22.4c0-13.2,11-21.5,24.4-21.5c13.6,0,21.8,8.3,25.4,16.7l-11.3,6.3c-3.3-6.3-7.7-9.5-13.5-9.5
				c-5.7,0-9.9,2.8-9.9,8c0,4.1,2.3,7.3,11,10.7l5.3,2.1c13.8,5.6,20.7,11.8,20.7,23c0,16-14,23.8-27.3,23.8
				C196,158.6,184.7,150.5,182,138.9z"/>
			<path class="st0" d="M245.5,78.5h15.2v79h-15.2L245.5,78.5L245.5,78.5z"/>
			<path class="st0" d="M303.8,130.8l-17.9,26.7h-17.8l26.8-40.1l-26.1-38.9h17.8l17.2,25.7l17.1-25.7h17.8l-26,38.9l26.8,40.1
				h-17.8L303.8,130.8z"/>
			<path class="st0" d="M362.5,92.5h-19v-14h53.3v14h-19v65h-15.2L362.5,92.5L362.5,92.5z"/>
		</g>
		<g>
			<path class="st0" d="M459.4,108.4c-1.6,0-3.3,0.2-4.8,0.5l22.1-30.4h-16.6l-18,24.9l0.5,0.8l0,0l8.9,13.2l-5,7.5
				c2.2-2.6,5.5-4.2,9.6-4.2c7.3,0,12.2,5.3,12.2,12c0,6.7-4.9,12-12.2,12c-7.3,0-12.3-5.3-12.3-12c0-2.1,0.5-4,1.4-5.7l-2.5,3.7
				l-9.5,14.2c4.6,8.1,13.3,12.6,22.9,12.6c13.8,0,26.4-9.4,26.4-25.2C482.2,118,471.7,108.4,459.4,108.4z"/>
			<g>
				<polygon class="st0" points="447,117.4 438.1,104.2 438.1,104.2 420.8,78.5 403,78.5 429.2,117.4 402.4,157.5 420.2,157.5 
					438.1,130.8 				"/>
			</g>
		</g>
	</g>
	<path class="st0" d="M101.1,56c-6-1.8-11.5-1.9-16.5-1c33.5-19.9,69.6,11.5,69.6,11.5l2.4-20.8c-45.5-26.5-78.4-8.8-97.2,9.5
		c-5.4,5.3-8.3,11.1-9.8,16.9C45.3,29.1,95,12.7,95,12.7L78.3,0C32.2,25.5,30.6,62.8,36.7,88.3c1.7,7.1,5,12.4,9,16.6
		C9.3,86.3,19.4,37.3,19.4,37.3L0,45.5c-0.8,52.7,30.8,72.6,55.9,80c6.8,2,13.1,1.8,18.5,0.5c-34.2,22.6-71.8-10.4-71.8-10.4
		l-2.5,20.8c45.4,26.7,78.3,9.1,97.2-9.1c5.1-5,8.1-10.5,9.6-15.9c3,41.7-45.4,57.7-45.4,57.7l16.7,12.7
		c46.1-25.6,47.6-62.9,41.5-88.4c-1.8-7.6-5.6-13.3-10-17.5c38,18.2,27.4,68.4,27.4,68.4l19.4-8C157.7,83.6,126.2,63.5,101.1,56z
		 M78.2,116.6c-14.3,0-25.9-11.6-25.9-25.9s11.6-25.9,25.9-25.9S104,76.4,104,90.7S92.5,116.6,78.2,116.6z"/>
</g>
</svg>
